<svg width="21" height="12" viewBox="0 0 21 12" fill="none" xmlns="http://www.w3.org/2000/svg">
<path opacity="0.35" fill-rule="evenodd" clip-rule="evenodd" d="M14.5111 1.33334H4.27109C3.50785 1.33334 2.99557 1.33412 2.60106 1.36635C2.21823 1.39763 2.03519 1.45348 1.91444 1.515C1.60084 1.67479 1.34587 1.92976 1.18608 2.24336C1.12456 2.36411 1.06871 2.54715 1.03744 2.92998C1.0052 3.32449 1.00443 3.83677 1.00443 4.60001V7.40001C1.00443 8.16325 1.0052 8.67554 1.03744 9.07004C1.06871 9.45287 1.12456 9.63591 1.18608 9.75666C1.34587 10.0703 1.60084 10.3252 1.91444 10.485C2.03519 10.5465 2.21823 10.6024 2.60106 10.6337C2.99557 10.6659 3.50786 10.6667 4.27109 10.6667H14.5111C15.2743 10.6667 15.7866 10.6659 16.1811 10.6337C16.564 10.6024 16.747 10.5465 16.8678 10.485C17.1814 10.3252 17.4363 10.0703 17.5961 9.75666C17.6576 9.63591 17.7135 9.45287 17.7448 9.07004C17.777 8.67554 17.7778 8.16325 17.7778 7.40001V4.60001C17.7778 3.83677 17.777 3.32449 17.7448 2.92998C17.7135 2.54715 17.6576 2.36411 17.5961 2.24336C17.4363 1.92976 17.1814 1.67479 16.8678 1.515C16.747 1.45348 16.564 1.39763 16.1811 1.36635C15.7866 1.33412 15.2743 1.33334 14.5111 1.33334ZM0.295074 1.78937C0.00442505 2.3598 0.00442505 3.10654 0.00442505 4.60001V7.40001C0.00442505 8.89348 0.00442505 9.64022 0.295074 10.2107C0.550737 10.7124 0.958685 11.1204 1.46045 11.376C2.03088 11.6667 2.77762 11.6667 4.27109 11.6667H14.5111C16.0046 11.6667 16.7513 11.6667 17.3217 11.376C17.8235 11.1204 18.2315 10.7124 18.4871 10.2107C18.7778 9.64022 18.7778 8.89349 18.7778 7.40001V4.60001C18.7778 3.10654 18.7778 2.3598 18.4871 1.78937C18.2315 1.2876 17.8235 0.879655 17.3217 0.623993C16.7513 0.333344 16.0046 0.333344 14.5111 0.333344H4.27109C2.77762 0.333344 2.03088 0.333344 1.46045 0.623993C0.958685 0.879655 0.550737 1.2876 0.295074 1.78937Z" fill="white"/>
<path opacity="0.4" d="M19.6311 4V8C20.3178 7.66122 20.7643 6.87313 20.7643 6C20.7643 5.12687 20.3178 4.33878 19.6311 4Z" fill="white"/>
<path d="M1.71109 4.46668C1.71109 3.71994 1.71109 3.34657 1.85641 3.06136C1.98425 2.81047 2.18822 2.6065 2.4391 2.47867C2.72432 2.33334 3.09769 2.33334 3.84442 2.33334H14.9378C15.6845 2.33334 16.0579 2.33334 16.3431 2.47867C16.594 2.6065 16.7979 2.81047 16.9258 3.06136C17.0711 3.34657 17.0711 3.71994 17.0711 4.46668V7.53334C17.0711 8.28008 17.0711 8.65345 16.9258 8.93866C16.7979 9.18955 16.594 9.39352 16.3431 9.52135C16.0579 9.66668 15.6845 9.66668 14.9378 9.66668H3.84442C3.09769 9.66668 2.72432 9.66668 2.4391 9.52135C2.18822 9.39352 1.98425 9.18955 1.85641 8.93866C1.71109 8.65345 1.71109 8.28008 1.71109 7.53334V4.46668Z" fill="white"/>
</svg>
